<svg width="387" height="417" viewBox="0 0 387 417" fill="none" xmlns="http://www.w3.org/2000/svg">
<g clip-path="url(#clip0_236_54212)">
<path d="M340 215.5C340 297.792 273.513 364.5 191.5 364.5C109.487 364.5 43 297.792 43 215.5C43 133.208 109.487 66.5 191.5 66.5C273.513 66.5 340 133.208 340 215.5Z" stroke="#E8EAED"/>
<circle cx="191.5" cy="216" r="191.5" stroke="#F6F7F8"/>
<g clip-path="url(#clip1_236_54212)">
<rect x="82.4004" y="58.1094" width="224" height="139.034" rx="11.873" fill="#080808"/>
<rect opacity="0.08" x="82.4004" y="58.1094" width="224" height="139.034" rx="11.8692" fill="white"/>
<path fill-rule="evenodd" clip-rule="evenodd" d="M247.157 68.6767C247.147 67.9714 247.706 67.3903 248.409 67.3753C248.754 67.3679 249.086 67.4999 249.332 67.7414C249.578 67.983 249.717 68.3137 249.717 68.6589C249.716 69.3642 249.149 69.9372 248.445 69.9421C247.742 69.947 247.167 69.3819 247.157 68.6767ZM246.595 77.8666L242.863 67.8529C242.845 67.8088 242.802 67.78 242.754 67.78H240.267C240.219 67.78 240.176 67.8088 240.158 67.8529L236.391 77.8666C236.379 77.902 236.385 77.9408 236.406 77.9713C236.428 78.0017 236.462 78.0203 236.5 78.0213H238.651C238.699 78.0213 238.742 77.9926 238.76 77.9485L239.441 76.0186C239.457 75.9727 239.501 75.943 239.55 75.9458H243.345C243.386 75.9628 243.414 76.0015 243.417 76.0459L244.098 77.9758C244.116 78.0199 244.159 78.0486 244.207 78.0486H246.449C246.486 78.0476 246.521 78.029 246.542 77.9986C246.564 77.9681 246.57 77.9293 246.558 77.8939L246.595 77.8666ZM242.616 73.9009H240.301C240.28 73.9039 240.259 73.8946 240.248 73.8771C240.236 73.8597 240.235 73.8371 240.246 73.819L241.417 70.5236C241.417 70.4934 241.442 70.469 241.472 70.469C241.502 70.469 241.526 70.4934 241.526 70.5236L242.67 73.819C242.681 73.8371 242.68 73.8597 242.668 73.8771C242.657 73.8946 242.636 73.9039 242.616 73.9009ZM247.324 77.8972C247.324 77.9626 247.377 78.0156 247.442 78.0156H249.403C249.468 78.0156 249.521 77.9626 249.521 77.8972V70.9969C249.521 70.9662 249.509 70.937 249.486 70.9162C249.464 70.8954 249.434 70.8851 249.403 70.8876H247.442C247.412 70.8851 247.382 70.8954 247.359 70.9162C247.337 70.937 247.324 70.9662 247.324 70.9969V77.8972ZM255.17 70.9778V72.8713H255.125C255.125 72.9037 255.112 72.9347 255.087 72.9558C255.062 72.9769 255.03 72.9859 254.998 72.9805C254.811 72.9678 254.622 72.9678 254.435 72.9805C253.554 72.9805 252.756 73.4994 252.756 74.9195V77.9328C252.758 77.9633 252.748 77.9935 252.727 78.016C252.706 78.0385 252.677 78.0512 252.647 78.0511H250.677C250.612 78.0511 250.559 77.9981 250.559 77.9328V70.996C250.559 70.9654 250.571 70.9361 250.594 70.9153C250.616 70.8946 250.646 70.8842 250.677 70.8867H252.619C252.68 70.8867 252.728 70.9357 252.728 70.996V71.8517C253.106 71.1787 253.829 70.777 254.598 70.8139C254.76 70.8138 254.921 70.829 255.08 70.8594C255.132 70.8751 255.169 70.9228 255.17 70.9778ZM262.979 70.9339C262.964 70.8862 262.92 70.8534 262.87 70.852H260.664C260.616 70.8492 260.572 70.8789 260.555 70.9248L259.221 74.9121C259.221 74.9422 259.197 74.9667 259.166 74.9667C259.136 74.9667 259.112 74.9422 259.112 74.9121L257.986 70.9339C257.974 70.8844 257.928 70.8503 257.877 70.852H255.853C255.818 70.8537 255.785 70.871 255.764 70.8991C255.743 70.9273 255.736 70.9634 255.744 70.9976L257.941 77.9708C257.95 78.0225 257.998 78.0583 258.05 78.0527H260.102C260.154 78.0583 260.201 78.0225 260.21 77.9708L261.663 73.5921C261.663 73.5619 261.687 73.5374 261.717 73.5374C261.748 73.5374 261.772 73.5619 261.772 73.5921L263.252 77.9799C263.27 78.024 263.313 78.0527 263.361 78.0527H265.376C265.429 78.0553 265.478 78.0217 265.494 77.9708L267.646 71.034C267.654 70.9998 267.646 70.9637 267.625 70.9356C267.604 70.9074 267.572 70.8901 267.537 70.8884H265.621C265.572 70.8922 265.53 70.9241 265.512 70.9703L264.386 74.9576C264.386 74.9877 264.362 75.0122 264.332 75.0122C264.302 75.0122 264.278 74.9877 264.278 74.9576L262.961 70.9703L262.979 70.9339ZM270.284 75.748C270.598 76.1097 271.049 76.3227 271.528 76.335C272.003 76.3207 272.45 76.1061 272.76 75.7439C273.069 75.3817 273.212 74.9055 273.153 74.4323C273.218 73.9589 273.077 73.4802 272.766 73.118C272.455 72.7557 272.004 72.5448 271.528 72.5388C270.583 72.5388 269.875 73.1852 269.875 74.4323C269.822 74.909 269.97 75.3863 270.284 75.748ZM275.163 70.8709H273.265C273.235 70.8683 273.205 70.8787 273.182 70.8995C273.16 70.9202 273.147 70.9495 273.147 70.9801V71.6902C272.748 70.9798 271.968 70.5727 271.159 70.6524C270.182 70.6496 269.249 71.0559 268.583 71.7731C267.918 72.4904 267.582 73.4535 267.655 74.4303C267.587 75.4209 267.934 76.3951 268.613 77.1177C269.292 77.8403 270.242 78.2455 271.232 78.2355C272.041 78.2798 272.799 77.8405 273.166 77.1158V77.9169C273.163 77.9474 273.173 77.9776 273.194 78.0001C273.215 78.0226 273.244 78.0353 273.274 78.0352H275.19C275.255 78.0352 275.308 77.9823 275.308 77.9169V70.9983C275.308 70.9677 275.295 70.9385 275.273 70.9177C275.251 70.8969 275.22 70.8865 275.19 70.8891L275.163 70.8709ZM276.493 78.0388C276.428 78.0388 276.375 77.9858 276.375 77.9205V67.7338C276.375 67.6685 276.428 67.6155 276.493 67.6155H278.454C278.519 67.6155 278.572 67.6685 278.572 67.7338V77.9205C278.572 77.9858 278.519 78.0388 278.454 78.0388H276.493ZM279.619 77.9205C279.619 77.9858 279.671 78.0388 279.737 78.0388H281.697C281.763 78.0388 281.815 77.9858 281.815 77.9205V67.7338C281.815 67.6685 281.763 67.6155 281.697 67.6155H279.727C279.662 67.6155 279.609 67.6685 279.609 67.7338V77.9387L279.619 77.9205ZM292.025 74.5286C292.052 74.4869 292.052 74.4337 292.025 74.392L291.989 74.4103L289.647 71.0693C289.624 71.0342 289.622 70.9897 289.64 70.9524C289.659 70.915 289.696 70.8902 289.738 70.8873H292.043C292.082 70.8866 292.117 70.9078 292.134 70.9419L293.342 72.7625C293.354 72.7779 293.372 72.7868 293.392 72.7868C293.411 72.7868 293.429 72.7779 293.441 72.7625L294.613 70.9419C294.635 70.9089 294.672 70.8887 294.712 70.8873H296.882C296.924 70.8902 296.961 70.915 296.979 70.9524C296.998 70.9897 296.995 71.0342 296.973 71.0693L294.676 74.3101C294.65 74.3518 294.65 74.405 294.676 74.4467C295.43 75.53 296.292 76.768 297.073 77.8604C297.096 77.8969 297.098 77.9432 297.077 77.9812C297.056 78.0191 297.016 78.0426 296.973 78.0425H294.712C294.671 78.0469 294.631 78.0252 294.613 77.9879L293.369 76.0944C293.341 76.0678 293.297 76.0678 293.269 76.0944C293.083 76.372 292.867 76.7066 292.652 77.0411C292.436 77.3757 292.22 77.7102 292.034 77.9879C292.016 78.0252 291.976 78.0469 291.934 78.0425H289.81C289.767 78.0426 289.727 78.0191 289.706 77.9812C289.686 77.9432 289.687 77.8969 289.71 77.8604L292.025 74.5286ZM286.136 72.4011C286.479 72.3602 286.823 72.4585 287.093 72.674C287.362 72.8896 287.534 73.2044 287.571 73.5481C287.573 73.5641 287.569 73.5805 287.558 73.5928C287.548 73.6051 287.532 73.6121 287.516 73.6118H284.793C284.777 73.6121 284.761 73.6051 284.751 73.5928C284.74 73.5805 284.736 73.5641 284.738 73.5481C284.852 72.8684 285.45 72.378 286.136 72.4011ZM289.656 75.024H284.718V75.0604C284.699 75.0593 284.682 75.0675 284.671 75.0821C284.66 75.0968 284.657 75.116 284.663 75.1332C284.811 75.8966 285.495 76.4355 286.27 76.3986C286.758 76.4358 287.231 76.2193 287.523 75.8251C287.547 75.7955 287.584 75.7788 287.623 75.7795H289.438C289.474 75.7817 289.507 75.7987 289.529 75.8264C289.552 75.8541 289.561 75.8899 289.556 75.9252C289.553 75.9646 289.553 76.0041 289.556 76.0435C289.102 77.4973 287.702 78.4397 286.188 78.3103C285.172 78.3447 284.189 77.9507 283.476 77.2241C282.764 76.4975 282.388 75.5047 282.439 74.4869C282.402 73.4977 282.768 72.536 283.453 71.8233C284.138 71.1106 285.083 70.7083 286.07 70.709C287.057 70.6216 288.032 70.9771 288.733 71.6798C289.434 72.3826 289.789 73.3604 289.701 74.3503C289.706 74.5758 289.691 74.8012 289.656 75.024ZM231.658 73.866L230.977 75.7413C230.951 75.7833 230.904 75.8088 230.855 75.8088C230.805 75.8088 230.759 75.7833 230.732 75.7413L229.625 74.4031L231.44 73.6384C231.492 73.6135 231.554 73.6242 231.595 73.6651C231.636 73.706 231.647 73.7683 231.622 73.8205L231.658 73.866ZM231.458 71.2395C232.193 70.9382 233.037 71.1066 233.601 71.6674L233.555 71.7493C234.128 72.313 234.317 73.1618 234.037 73.9159L232.974 76.8017C232.705 77.5626 232.063 78.1303 231.277 78.3037C231.132 78.3165 230.986 78.3165 230.841 78.3037C230.181 78.3073 229.554 78.0132 229.134 77.5026L222.78 69.8558C222.753 69.8138 222.707 69.7883 222.657 69.7883C222.607 69.7883 222.561 69.8138 222.534 69.8558L220.537 75.4635C220.512 75.5157 220.523 75.578 220.564 75.6189C220.605 75.6598 220.667 75.6705 220.719 75.6455L223.243 74.6077C223.532 74.4889 223.858 74.4971 224.141 74.6303C224.424 74.7635 224.638 75.0096 224.731 75.3087C224.907 75.89 224.612 76.5098 224.051 76.7379L220.728 78.0943C220.116 78.3569 219.415 78.2954 218.858 77.9305C218.08 77.4109 217.761 76.4237 218.086 75.5454L220.537 68.9181C220.815 68.1404 221.488 67.5724 222.3 67.4311C223.111 67.2898 223.936 67.597 224.459 68.2354L228.09 72.6141L231.458 71.2395Z" fill="url(#paint0_linear_236_54212)"/>
<path opacity="0.3" fill-rule="evenodd" clip-rule="evenodd" d="M247.157 68.6767C247.147 67.9714 247.706 67.3903 248.409 67.3753C248.754 67.3679 249.086 67.4999 249.332 67.7414C249.578 67.983 249.717 68.3137 249.717 68.6589C249.716 69.3642 249.149 69.9372 248.445 69.9421C247.742 69.947 247.167 69.3819 247.157 68.6767ZM246.595 77.8666L242.863 67.8529C242.845 67.8088 242.802 67.78 242.754 67.78H240.267C240.219 67.78 240.176 67.8088 240.158 67.8529L236.391 77.8666C236.379 77.902 236.385 77.9408 236.406 77.9713C236.428 78.0017 236.462 78.0203 236.5 78.0213H238.651C238.699 78.0213 238.742 77.9926 238.76 77.9485L239.441 76.0186C239.457 75.9727 239.501 75.943 239.55 75.9458H243.345C243.386 75.9628 243.414 76.0015 243.417 76.0459L244.098 77.9758C244.116 78.0199 244.159 78.0486 244.207 78.0486H246.449C246.486 78.0476 246.521 78.029 246.542 77.9986C246.564 77.9681 246.57 77.9293 246.558 77.8939L246.595 77.8666ZM242.616 73.9009H240.301C240.28 73.9039 240.259 73.8946 240.248 73.8771C240.236 73.8597 240.235 73.8371 240.246 73.819L241.417 70.5236C241.417 70.4934 241.442 70.469 241.472 70.469C241.502 70.469 241.526 70.4934 241.526 70.5236L242.67 73.819C242.681 73.8371 242.68 73.8597 242.668 73.8771C242.657 73.8946 242.636 73.9039 242.616 73.9009ZM247.324 77.8972C247.324 77.9626 247.377 78.0156 247.442 78.0156H249.403C249.468 78.0156 249.521 77.9626 249.521 77.8972V70.9969C249.521 70.9662 249.509 70.937 249.486 70.9162C249.464 70.8954 249.434 70.8851 249.403 70.8876H247.442C247.412 70.8851 247.382 70.8954 247.359 70.9162C247.337 70.937 247.324 70.9662 247.324 70.9969V77.8972ZM255.17 70.9778V72.8713H255.125C255.125 72.9037 255.112 72.9347 255.087 72.9558C255.062 72.9769 255.03 72.9859 254.998 72.9805C254.811 72.9678 254.622 72.9678 254.435 72.9805C253.554 72.9805 252.756 73.4994 252.756 74.9195V77.9328C252.758 77.9633 252.748 77.9935 252.727 78.016C252.706 78.0385 252.677 78.0512 252.647 78.0511H250.677C250.612 78.0511 250.559 77.9981 250.559 77.9328V70.996C250.559 70.9654 250.571 70.9361 250.594 70.9153C250.616 70.8946 250.646 70.8842 250.677 70.8867H252.619C252.68 70.8867 252.728 70.9357 252.728 70.996V71.8517C253.106 71.1787 253.829 70.777 254.598 70.8139C254.76 70.8138 254.921 70.829 255.08 70.8594C255.132 70.8751 255.169 70.9228 255.17 70.9778ZM262.979 70.9339C262.964 70.8862 262.92 70.8534 262.87 70.852H260.664C260.616 70.8492 260.572 70.8789 260.555 70.9248L259.221 74.9121C259.221 74.9422 259.197 74.9667 259.166 74.9667C259.136 74.9667 259.112 74.9422 259.112 74.9121L257.986 70.9339C257.974 70.8844 257.928 70.8503 257.877 70.852H255.853C255.818 70.8537 255.785 70.871 255.764 70.8991C255.743 70.9273 255.736 70.9634 255.744 70.9976L257.941 77.9708C257.95 78.0225 257.998 78.0583 258.05 78.0527H260.102C260.154 78.0583 260.201 78.0225 260.21 77.9708L261.663 73.5921C261.663 73.5619 261.687 73.5374 261.717 73.5374C261.748 73.5374 261.772 73.5619 261.772 73.5921L263.252 77.9799C263.27 78.024 263.313 78.0527 263.361 78.0527H265.376C265.429 78.0553 265.478 78.0217 265.494 77.9708L267.646 71.034C267.654 70.9998 267.646 70.9637 267.625 70.9356C267.604 70.9074 267.572 70.8901 267.537 70.8884H265.621C265.572 70.8922 265.53 70.9241 265.512 70.9703L264.386 74.9576C264.386 74.9877 264.362 75.0122 264.332 75.0122C264.302 75.0122 264.278 74.9877 264.278 74.9576L262.961 70.9703L262.979 70.9339ZM270.284 75.748C270.598 76.1097 271.049 76.3227 271.528 76.335C272.003 76.3207 272.45 76.1061 272.76 75.7439C273.069 75.3817 273.212 74.9055 273.153 74.4323C273.218 73.9589 273.077 73.4802 272.766 73.118C272.455 72.7557 272.004 72.5448 271.528 72.5388C270.583 72.5388 269.875 73.1852 269.875 74.4323C269.822 74.909 269.97 75.3863 270.284 75.748ZM275.163 70.8709H273.265C273.235 70.8683 273.205 70.8787 273.182 70.8995C273.16 70.9202 273.147 70.9495 273.147 70.9801V71.6902C272.748 70.9798 271.968 70.5727 271.159 70.6524C270.182 70.6496 269.249 71.0559 268.583 71.7731C267.918 72.4904 267.582 73.4535 267.655 74.4303C267.587 75.4209 267.934 76.3951 268.613 77.1177C269.292 77.8403 270.242 78.2455 271.232 78.2355C272.041 78.2798 272.799 77.8405 273.166 77.1158V77.9169C273.163 77.9474 273.173 77.9776 273.194 78.0001C273.215 78.0226 273.244 78.0353 273.274 78.0352H275.19C275.255 78.0352 275.308 77.9823 275.308 77.9169V70.9983C275.308 70.9677 275.295 70.9385 275.273 70.9177C275.251 70.8969 275.22 70.8865 275.19 70.8891L275.163 70.8709ZM276.493 78.0388C276.428 78.0388 276.375 77.9858 276.375 77.9205V67.7338C276.375 67.6685 276.428 67.6155 276.493 67.6155H278.454C278.519 67.6155 278.572 67.6685 278.572 67.7338V77.9205C278.572 77.9858 278.519 78.0388 278.454 78.0388H276.493ZM279.619 77.9205C279.619 77.9858 279.671 78.0388 279.737 78.0388H281.697C281.763 78.0388 281.815 77.9858 281.815 77.9205V67.7338C281.815 67.6685 281.763 67.6155 281.697 67.6155H279.727C279.662 67.6155 279.609 67.6685 279.609 67.7338V77.9387L279.619 77.9205ZM292.025 74.5286C292.052 74.4869 292.052 74.4337 292.025 74.392L291.989 74.4103L289.647 71.0693C289.624 71.0342 289.622 70.9897 289.64 70.9524C289.659 70.915 289.696 70.8902 289.738 70.8873H292.043C292.082 70.8866 292.117 70.9078 292.134 70.9419L293.342 72.7625C293.354 72.7779 293.372 72.7868 293.392 72.7868C293.411 72.7868 293.429 72.7779 293.441 72.7625L294.613 70.9419C294.635 70.9089 294.672 70.8887 294.712 70.8873H296.882C296.924 70.8902 296.961 70.915 296.979 70.9524C296.998 70.9897 296.995 71.0342 296.973 71.0693L294.676 74.3101C294.65 74.3518 294.65 74.405 294.676 74.4467C295.43 75.53 296.292 76.768 297.073 77.8604C297.096 77.8969 297.098 77.9432 297.077 77.9812C297.056 78.0191 297.016 78.0426 296.973 78.0425H294.712C294.671 78.0469 294.631 78.0252 294.613 77.9879L293.369 76.0944C293.341 76.0678 293.297 76.0678 293.269 76.0944C293.083 76.372 292.867 76.7066 292.652 77.0411C292.436 77.3757 292.22 77.7102 292.034 77.9879C292.016 78.0252 291.976 78.0469 291.934 78.0425H289.81C289.767 78.0426 289.727 78.0191 289.706 77.9812C289.686 77.9432 289.687 77.8969 289.71 77.8604L292.025 74.5286ZM286.136 72.4011C286.479 72.3602 286.823 72.4585 287.093 72.674C287.362 72.8896 287.534 73.2044 287.571 73.5481C287.573 73.5641 287.569 73.5805 287.558 73.5928C287.548 73.6051 287.532 73.6121 287.516 73.6118H284.793C284.777 73.6121 284.761 73.6051 284.751 73.5928C284.74 73.5805 284.736 73.5641 284.738 73.5481C284.852 72.8684 285.45 72.378 286.136 72.4011ZM289.656 75.024H284.718V75.0604C284.699 75.0593 284.682 75.0675 284.671 75.0821C284.66 75.0968 284.657 75.116 284.663 75.1332C284.811 75.8966 285.495 76.4355 286.27 76.3986C286.758 76.4358 287.231 76.2193 287.523 75.8251C287.547 75.7955 287.584 75.7788 287.623 75.7795H289.438C289.474 75.7817 289.507 75.7987 289.529 75.8264C289.552 75.8541 289.561 75.8899 289.556 75.9252C289.553 75.9646 289.553 76.0041 289.556 76.0435C289.102 77.4973 287.702 78.4397 286.188 78.3103C285.172 78.3447 284.189 77.9507 283.476 77.2241C282.764 76.4975 282.388 75.5047 282.439 74.4869C282.402 73.4977 282.768 72.536 283.453 71.8233C284.138 71.1106 285.083 70.7083 286.07 70.709C287.057 70.6216 288.032 70.9771 288.733 71.6798C289.434 72.3826 289.789 73.3604 289.701 74.3503C289.706 74.5758 289.691 74.8012 289.656 75.024ZM231.658 73.866L230.977 75.7413C230.951 75.7833 230.904 75.8088 230.855 75.8088C230.805 75.8088 230.759 75.7833 230.732 75.7413L229.625 74.4031L231.44 73.6384C231.492 73.6135 231.554 73.6242 231.595 73.6651C231.636 73.706 231.647 73.7683 231.622 73.8205L231.658 73.866ZM231.458 71.2395C232.193 70.9382 233.037 71.1066 233.601 71.6674L233.555 71.7493C234.128 72.313 234.317 73.1618 234.037 73.9159L232.974 76.8017C232.705 77.5626 232.063 78.1303 231.277 78.3037C231.132 78.3165 230.986 78.3165 230.841 78.3037C230.181 78.3073 229.554 78.0132 229.134 77.5026L222.78 69.8558C222.753 69.8138 222.707 69.7883 222.657 69.7883C222.607 69.7883 222.561 69.8138 222.534 69.8558L220.537 75.4635C220.512 75.5157 220.523 75.578 220.564 75.6189C220.605 75.6598 220.667 75.6705 220.719 75.6455L223.243 74.6077C223.532 74.4889 223.858 74.4971 224.141 74.6303C224.424 74.7635 224.638 75.0096 224.731 75.3087C224.907 75.89 224.612 76.5098 224.051 76.7379L220.728 78.0943C220.116 78.3569 219.415 78.2954 218.858 77.9305C218.08 77.4109 217.761 76.4237 218.086 75.5454L220.537 68.9181C220.815 68.1404 221.488 67.5724 222.3 67.4311C223.111 67.2898 223.936 67.597 224.459 68.2354L228.09 72.6141L231.458 71.2395Z" fill="url(#paint1_linear_236_54212)"/>
<path fill-rule="evenodd" clip-rule="evenodd" d="M279.516 169.877C281.112 170.706 283.097 171.737 283.086 174.133H283.122C283.113 177.292 280.396 179.341 276.244 179.341C274.739 179.347 273.247 179.072 271.844 178.53L272.557 175.198C273.809 175.86 275.211 176.189 276.628 176.154C277.762 176.136 278.988 175.69 278.988 174.67C278.997 173.996 278.439 173.504 276.939 172.776C275.439 172.048 273.472 170.828 273.472 168.633C273.5 165.674 276.253 163.607 280.159 163.607C281.409 163.615 282.647 163.843 283.817 164.281L283.122 167.513C281.908 166.943 280.562 166.71 279.226 166.84C278.082 166.985 277.552 167.568 277.552 168.114C277.537 168.849 278.438 169.317 279.516 169.877ZM260.309 179.095L266.712 163.89H262.56L258.453 174.242L256.788 165.437C256.651 164.54 255.871 163.879 254.958 163.89H248.226L248.135 164.327C249.491 164.595 250.809 165.029 252.059 165.62C252.574 165.88 252.92 166.385 252.974 166.958L256.129 179.095H260.309ZM293.449 179.095H297.107L293.879 163.89H290.494C289.76 163.89 289.097 164.328 288.811 165L282.884 179.095H287.037L287.86 176.828H292.9L293.449 179.095ZM291.071 167.996L289.031 173.705H292.269L291.071 167.996ZM272.365 163.89L269.118 179.095H265.139L268.404 163.89H272.365ZM269.137 182.382C269.441 182.324 269.934 182.266 270.427 182.266C271.137 182.266 271.587 182.382 271.935 182.657C272.225 182.875 272.384 183.194 272.384 183.629C272.384 184.15 272.036 184.614 271.456 184.832V184.846C271.978 184.977 272.587 185.412 272.587 186.223C272.587 186.687 272.399 187.05 272.123 187.325C271.746 187.673 271.123 187.832 270.239 187.832C269.746 187.832 269.383 187.803 269.137 187.774V182.382ZM269.847 184.629H270.485C271.239 184.629 271.674 184.237 271.674 183.716C271.674 183.078 271.181 182.817 270.471 182.817C270.184 182.817 270.002 182.84 269.884 182.856L269.847 182.86V184.629ZM269.847 187.238C269.992 187.267 270.195 187.267 270.442 187.267C271.166 187.267 271.848 187.006 271.848 186.209C271.848 185.455 271.21 185.151 270.442 185.151H269.862V187.238H269.847ZM276.806 186.702C276.806 187.108 276.821 187.47 276.835 187.774H276.197L276.154 187.137H276.139C275.951 187.455 275.545 187.861 274.835 187.861C274.211 187.861 273.472 187.513 273.472 186.136V183.846H274.182V186.02C274.182 186.774 274.414 187.267 275.052 187.267C275.531 187.267 275.864 186.934 275.994 186.615C276.038 186.513 276.052 186.383 276.052 186.252V183.846H276.763V186.702H276.806ZM278.834 187.34C278.472 187.34 278.109 187.195 277.892 187.05L277.761 187.601C278.037 187.76 278.428 187.862 278.863 187.862C279.791 187.862 280.327 187.383 280.327 186.688C280.327 186.093 279.979 185.76 279.298 185.499C278.776 185.296 278.544 185.151 278.544 184.832C278.544 184.542 278.776 184.296 279.196 184.296C279.559 184.296 279.834 184.426 279.994 184.528L280.168 184.006C279.95 183.875 279.588 183.759 279.196 183.759C278.341 183.759 277.834 184.281 277.834 184.919C277.834 185.397 278.167 185.789 278.877 186.035C279.399 186.238 279.602 186.412 279.602 186.76C279.602 187.079 279.356 187.34 278.834 187.34ZM281.996 182.744C282.01 182.991 281.822 183.179 281.546 183.179C281.3 183.179 281.111 182.991 281.111 182.744C281.111 182.498 281.3 182.295 281.561 182.295C281.836 182.295 281.996 182.498 281.996 182.744ZM281.198 187.775V183.846H281.909V187.775H281.198ZM283.067 183.861C283.082 184.179 283.096 184.513 283.096 184.919H283.125V187.789H283.835V185.426C283.835 185.31 283.85 185.18 283.879 185.093C283.995 184.701 284.372 184.368 284.836 184.368C285.517 184.368 285.749 184.89 285.749 185.528V187.789H286.459V185.441C286.459 184.092 285.618 183.774 285.068 183.774C284.415 183.774 283.951 184.136 283.763 184.513H283.748L283.705 183.861H283.067ZM288.012 185.948C288.026 186.919 288.649 187.311 289.36 187.311C289.867 187.311 290.186 187.224 290.447 187.108L290.563 187.615C290.316 187.731 289.882 187.862 289.258 187.862C288.055 187.862 287.33 187.064 287.33 185.876C287.33 184.687 288.026 183.759 289.171 183.759C290.447 183.759 290.795 184.89 290.795 185.615C290.795 185.76 290.78 185.876 290.766 185.948H288.012ZM290.099 185.441C290.114 184.991 289.911 184.281 289.113 184.281C288.388 184.281 288.07 184.948 288.012 185.441H290.099ZM292.52 187.34C292.158 187.34 291.795 187.195 291.578 187.05L291.448 187.601C291.723 187.76 292.114 187.862 292.549 187.862C293.477 187.862 294.013 187.383 294.013 186.688C294.013 186.093 293.665 185.76 292.984 185.499C292.462 185.296 292.23 185.151 292.23 184.832C292.23 184.542 292.462 184.296 292.883 184.296C293.245 184.296 293.52 184.426 293.68 184.528L293.854 184.006C293.636 183.875 293.274 183.759 292.883 183.759C292.027 183.759 291.52 184.281 291.52 184.919C291.52 185.397 291.853 185.789 292.564 186.035C293.086 186.238 293.289 186.412 293.289 186.76C293.289 187.079 293.042 187.34 292.52 187.34ZM294.794 187.05C295.012 187.195 295.374 187.34 295.737 187.34C296.258 187.34 296.505 187.079 296.505 186.76C296.505 186.412 296.302 186.238 295.78 186.035C295.07 185.789 294.736 185.397 294.736 184.919C294.736 184.281 295.244 183.759 296.099 183.759C296.49 183.759 296.853 183.875 297.07 184.006L296.896 184.528C296.737 184.426 296.461 184.296 296.099 184.296C295.679 184.296 295.447 184.542 295.447 184.832C295.447 185.151 295.679 185.296 296.2 185.499C296.882 185.76 297.23 186.093 297.23 186.688C297.23 187.383 296.693 187.862 295.766 187.862C295.331 187.862 294.939 187.76 294.664 187.601L294.794 187.05Z" fill="#D7DBE0"/>
<mask id="mask0_236_54212" style="mask-type:luminance" maskUnits="userSpaceOnUse" x="109" y="106" width="26" height="26">
<path fill-rule="evenodd" clip-rule="evenodd" d="M131.394 131.077C132.204 131.09 132.985 130.779 133.567 130.213C134.148 129.647 134.482 128.873 134.494 128.061V109.971C134.464 108.283 133.077 106.938 131.394 106.963H112.838C112.029 106.949 111.248 107.257 110.666 107.822C110.084 108.386 109.75 109.159 109.738 109.971V128.061C109.748 128.874 110.081 129.649 110.663 130.216C111.245 130.782 112.028 131.092 112.838 131.077H131.394Z" fill="white"/>
</mask>
<g mask="url(#mask0_236_54212)">
<path d="M105.379 135.676V102.365H138.856V135.676H105.379Z" fill="url(#paint2_linear_236_54212)"/>
</g>
<path fill-rule="evenodd" clip-rule="evenodd" d="M112.905 106.034H131.396V106.043C133.648 106.043 135.475 107.872 135.48 110.13V127.906C135.48 130.168 133.651 132.002 131.396 132.002H112.905C111.822 132.002 110.783 131.571 110.017 130.803C109.251 130.034 108.82 128.993 108.82 127.906V110.13C108.82 107.868 110.649 106.034 112.905 106.034ZM134.517 110.129C134.512 108.398 133.125 106.99 131.399 106.965V106.956H112.908C111.16 106.956 109.743 108.376 109.743 110.129V127.905C109.743 129.658 111.16 131.079 112.908 131.079H131.399C133.128 131.053 134.517 129.64 134.517 127.905V110.129Z" fill="url(#paint3_linear_236_54212)"/>
<path fill-rule="evenodd" clip-rule="evenodd" d="M117.991 114.875H126.245V123.152H117.991V114.875ZM125.736 122.645V115.387H118.499V122.645H125.736Z" fill="#232020"/>
<path d="M115.822 112.443L116.001 112.518L118.439 114.953L118.081 115.314L115.717 112.952L109.741 112.953V112.443H115.822Z" fill="#232020"/>
<path d="M134.513 112.443V112.953L128.527 112.952L126.174 115.314L125.814 114.953L128.243 112.518L128.423 112.443H134.513Z" fill="#232020"/>
<path d="M118.081 122.723L118.439 123.084L116.001 125.519L115.822 125.593H109.741V125.084L115.717 125.083L118.081 122.723Z" fill="#232020"/>
<path d="M126.174 122.723L128.526 125.082L134.513 125.083V125.593H128.423L128.243 125.518L125.814 123.083L126.174 122.723Z" fill="#232020"/>
<path d="M122.379 106.959V115.132H121.87V106.959H122.379Z" fill="#232020"/>
<path d="M122.379 122.9V131.074H121.87V122.9H122.379Z" fill="#232020"/>
<path d="M134.513 118.762V119.271H126.114V118.762H134.513Z" fill="#232020"/>
<path d="M118.14 118.762V119.271H109.741V118.762H118.14Z" fill="#232020"/>
<g clip-path="url(#clip2_236_54212)">
<rect width="201" height="429" transform="translate(93.001 230)" fill="#F6F7F8"/>
<rect x="116.095" y="288.963" width="153.101" height="95.0285" rx="8.11506" fill="#080808"/>
<rect opacity="0.08" x="116.095" y="288.963" width="153.101" height="95.0285" rx="8.11245" fill="white"/>
<path fill-rule="evenodd" clip-rule="evenodd" d="M228.705 296.186C228.698 295.704 229.08 295.306 229.561 295.296C229.796 295.291 230.023 295.381 230.192 295.546C230.36 295.711 230.454 295.937 230.454 296.173C230.454 296.655 230.066 297.047 229.586 297.05C229.105 297.054 228.711 296.668 228.705 296.186ZM228.32 302.467L225.77 295.623C225.758 295.592 225.728 295.573 225.696 295.573H223.996C223.963 295.573 223.934 295.592 223.921 295.623L221.346 302.467C221.338 302.491 221.342 302.518 221.357 302.538C221.372 302.559 221.395 302.572 221.421 302.573H222.891C222.924 302.573 222.953 302.553 222.966 302.523L223.431 301.204C223.442 301.172 223.472 301.152 223.505 301.154H226.099C226.127 301.166 226.146 301.192 226.149 301.222L226.614 302.541C226.627 302.572 226.656 302.591 226.689 302.591H228.221C228.247 302.59 228.27 302.578 228.285 302.557C228.299 302.536 228.303 302.51 228.296 302.485L228.32 302.467ZM225.601 299.756H224.019C224.004 299.758 223.99 299.752 223.982 299.74C223.974 299.728 223.974 299.713 223.981 299.7L224.782 297.448C224.782 297.427 224.798 297.411 224.819 297.411C224.84 297.411 224.856 297.427 224.856 297.448L225.638 299.7C225.645 299.713 225.645 299.728 225.637 299.74C225.629 299.752 225.615 299.758 225.601 299.756ZM228.819 302.488C228.819 302.532 228.855 302.569 228.9 302.569H230.24C230.285 302.569 230.321 302.532 230.321 302.488V297.771C230.321 297.75 230.312 297.73 230.297 297.716C230.282 297.702 230.261 297.695 230.24 297.697H228.9C228.879 297.695 228.859 297.702 228.843 297.716C228.828 297.73 228.819 297.75 228.819 297.771V302.488ZM234.182 297.758V299.053H234.151C234.151 299.075 234.142 299.096 234.125 299.11C234.108 299.125 234.086 299.131 234.064 299.127C233.936 299.119 233.807 299.119 233.679 299.127C233.077 299.127 232.531 299.482 232.531 300.453V302.512C232.533 302.533 232.526 302.553 232.512 302.569C232.498 302.584 232.478 302.593 232.457 302.593H231.111C231.066 302.593 231.03 302.557 231.03 302.512V297.771C231.03 297.75 231.039 297.73 231.054 297.716C231.069 297.701 231.09 297.694 231.111 297.696H232.438C232.48 297.696 232.513 297.73 232.513 297.771V298.356C232.771 297.896 233.265 297.621 233.791 297.646C233.901 297.646 234.012 297.657 234.12 297.677C234.156 297.688 234.181 297.721 234.182 297.758ZM239.519 297.728C239.509 297.696 239.479 297.673 239.445 297.672H237.937C237.904 297.67 237.874 297.691 237.863 297.722L236.95 300.447C236.95 300.468 236.934 300.485 236.913 300.485C236.893 300.485 236.876 300.468 236.876 300.447L236.107 297.728C236.098 297.695 236.067 297.671 236.032 297.672H234.648C234.624 297.674 234.602 297.685 234.588 297.705C234.574 297.724 234.568 297.749 234.574 297.772L236.076 302.538C236.082 302.573 236.114 302.598 236.15 302.594H237.552C237.588 302.598 237.62 302.573 237.627 302.538L238.62 299.545C238.62 299.525 238.636 299.508 238.657 299.508C238.677 299.508 238.694 299.525 238.694 299.545L239.705 302.544C239.718 302.574 239.747 302.594 239.78 302.594H241.157C241.194 302.596 241.227 302.573 241.238 302.538L242.709 297.797C242.714 297.773 242.709 297.749 242.695 297.729C242.68 297.71 242.658 297.698 242.634 297.697H241.325C241.291 297.7 241.262 297.722 241.25 297.753L240.481 300.479C240.481 300.499 240.464 300.516 240.444 300.516C240.423 300.516 240.407 300.499 240.407 300.479L239.507 297.753L239.519 297.728ZM244.512 301.019C244.727 301.266 245.035 301.412 245.362 301.42C245.687 301.41 245.993 301.264 246.204 301.016C246.415 300.768 246.513 300.443 246.473 300.12C246.517 299.796 246.421 299.469 246.208 299.221C245.996 298.974 245.688 298.829 245.362 298.825C244.717 298.825 244.233 299.267 244.233 300.12C244.196 300.445 244.297 300.772 244.512 301.019ZM247.846 297.685H246.55C246.529 297.684 246.508 297.691 246.493 297.705C246.478 297.719 246.469 297.739 246.469 297.76V298.245C246.196 297.76 245.663 297.481 245.11 297.536C244.443 297.534 243.804 297.812 243.35 298.302C242.895 298.792 242.665 299.451 242.715 300.118C242.668 300.795 242.906 301.461 243.37 301.955C243.834 302.449 244.483 302.726 245.16 302.719C245.713 302.749 246.231 302.449 246.481 301.954V302.501C246.48 302.522 246.487 302.543 246.501 302.558C246.515 302.573 246.535 302.582 246.556 302.582H247.865C247.91 302.582 247.946 302.546 247.946 302.501V297.772C247.946 297.751 247.937 297.731 247.922 297.717C247.906 297.703 247.886 297.696 247.865 297.698L247.846 297.685ZM248.756 302.585C248.711 302.585 248.675 302.548 248.675 302.504V295.541C248.675 295.496 248.711 295.46 248.756 295.46H250.096C250.141 295.46 250.177 295.496 250.177 295.541V302.504C250.177 302.548 250.141 302.585 250.096 302.585H248.756ZM250.892 302.504C250.892 302.548 250.928 302.585 250.973 302.585H252.313C252.357 302.585 252.394 302.548 252.394 302.504V295.541C252.394 295.496 252.357 295.46 252.313 295.46H250.966C250.922 295.46 250.886 295.496 250.886 295.541V302.516L250.892 302.504ZM259.372 300.185C259.39 300.157 259.39 300.12 259.372 300.092L259.347 300.104L257.746 297.821C257.731 297.797 257.729 297.767 257.742 297.741C257.755 297.715 257.78 297.699 257.808 297.696H259.384C259.41 297.696 259.434 297.71 259.446 297.734L260.272 298.978C260.28 298.989 260.292 298.995 260.306 298.995C260.319 298.995 260.332 298.989 260.34 298.978L261.14 297.734C261.156 297.711 261.181 297.697 261.208 297.696H262.691C262.72 297.699 262.745 297.715 262.758 297.741C262.771 297.767 262.769 297.797 262.753 297.821L261.184 300.036C261.166 300.064 261.166 300.101 261.184 300.129C261.699 300.87 262.288 301.716 262.822 302.463C262.838 302.488 262.839 302.519 262.824 302.545C262.81 302.571 262.783 302.587 262.753 302.587H261.208C261.18 302.59 261.153 302.575 261.14 302.55L260.29 301.255C260.271 301.237 260.241 301.237 260.222 301.255C260.095 301.445 259.947 301.674 259.8 301.902L259.8 301.903C259.653 302.131 259.505 302.36 259.378 302.55C259.365 302.575 259.338 302.59 259.31 302.587H257.858C257.828 302.587 257.801 302.571 257.787 302.545C257.773 302.519 257.774 302.488 257.79 302.463L259.372 300.185ZM255.347 298.731C255.581 298.703 255.816 298.77 256 298.918C256.185 299.065 256.302 299.28 256.327 299.515C256.329 299.526 256.326 299.537 256.319 299.546C256.312 299.554 256.301 299.559 256.29 299.559H254.429C254.418 299.559 254.407 299.554 254.4 299.546C254.393 299.537 254.389 299.526 254.391 299.515C254.469 299.051 254.877 298.715 255.347 298.731ZM257.753 300.524H254.377V300.549C254.365 300.548 254.353 300.554 254.345 300.564C254.338 300.574 254.336 300.587 254.34 300.599C254.441 301.12 254.909 301.489 255.438 301.463C255.772 301.489 256.095 301.341 256.294 301.071C256.311 301.051 256.336 301.04 256.363 301.04H257.604C257.628 301.042 257.65 301.053 257.666 301.072C257.681 301.091 257.688 301.116 257.684 301.14C257.682 301.167 257.682 301.194 257.684 301.221C257.374 302.214 256.417 302.858 255.382 302.77C254.688 302.794 254.016 302.524 253.529 302.028C253.042 301.531 252.785 300.852 252.82 300.157C252.794 299.481 253.045 298.823 253.513 298.336C253.981 297.849 254.627 297.574 255.302 297.575C255.976 297.515 256.643 297.758 257.122 298.238C257.601 298.719 257.843 299.387 257.784 300.063C257.787 300.218 257.776 300.372 257.753 300.524ZM218.112 299.732L217.646 301.014C217.628 301.043 217.596 301.06 217.562 301.06C217.529 301.06 217.497 301.043 217.479 301.014L216.722 300.1L217.963 299.577C217.998 299.56 218.041 299.567 218.069 299.595C218.096 299.623 218.104 299.666 218.087 299.701L218.112 299.732ZM217.975 297.937C218.477 297.731 219.054 297.846 219.439 298.23L219.408 298.286C219.8 298.671 219.929 299.251 219.737 299.767L219.011 301.739C218.827 302.259 218.388 302.647 217.851 302.766C217.752 302.774 217.652 302.774 217.553 302.766C217.102 302.768 216.674 302.567 216.387 302.218L212.043 296.991C212.025 296.963 211.993 296.945 211.959 296.945C211.925 296.945 211.894 296.963 211.876 296.991L210.511 300.824C210.494 300.86 210.501 300.903 210.529 300.93C210.557 300.958 210.599 300.966 210.635 300.949L212.36 300.239C212.557 300.158 212.78 300.164 212.973 300.255C213.167 300.346 213.313 300.514 213.377 300.718C213.497 301.116 213.296 301.539 212.912 301.695L210.641 302.622C210.223 302.802 209.743 302.76 209.363 302.51C208.831 302.155 208.613 301.481 208.835 300.88L210.511 296.351C210.7 295.819 211.161 295.431 211.715 295.334C212.27 295.238 212.834 295.448 213.191 295.884L215.673 298.877L217.975 297.937Z" fill="url(#paint4_linear_236_54212)"/>
<path opacity="0.3" fill-rule="evenodd" clip-rule="evenodd" d="M228.705 296.186C228.698 295.704 229.08 295.306 229.561 295.296C229.796 295.291 230.023 295.381 230.192 295.546C230.36 295.711 230.454 295.937 230.454 296.173C230.454 296.655 230.066 297.047 229.586 297.05C229.105 297.054 228.711 296.668 228.705 296.186ZM228.32 302.467L225.77 295.623C225.758 295.592 225.728 295.573 225.696 295.573H223.996C223.963 295.573 223.934 295.592 223.921 295.623L221.346 302.467C221.338 302.491 221.342 302.518 221.357 302.538C221.372 302.559 221.395 302.572 221.421 302.573H222.891C222.924 302.573 222.953 302.553 222.966 302.523L223.431 301.204C223.442 301.172 223.472 301.152 223.505 301.154H226.099C226.127 301.166 226.146 301.192 226.149 301.222L226.614 302.541C226.627 302.572 226.656 302.591 226.689 302.591H228.221C228.247 302.59 228.27 302.578 228.285 302.557C228.299 302.536 228.303 302.51 228.296 302.485L228.32 302.467ZM225.601 299.756H224.019C224.004 299.758 223.99 299.752 223.982 299.74C223.974 299.728 223.974 299.713 223.981 299.7L224.782 297.448C224.782 297.427 224.798 297.411 224.819 297.411C224.84 297.411 224.856 297.427 224.856 297.448L225.638 299.7C225.645 299.713 225.645 299.728 225.637 299.74C225.629 299.752 225.615 299.758 225.601 299.756ZM228.819 302.488C228.819 302.532 228.855 302.569 228.9 302.569H230.24C230.285 302.569 230.321 302.532 230.321 302.488V297.771C230.321 297.75 230.312 297.73 230.297 297.716C230.282 297.702 230.261 297.695 230.24 297.697H228.9C228.879 297.695 228.859 297.702 228.843 297.716C228.828 297.73 228.819 297.75 228.819 297.771V302.488ZM234.182 297.758V299.053H234.151C234.151 299.075 234.142 299.096 234.125 299.11C234.108 299.125 234.086 299.131 234.064 299.127C233.936 299.119 233.807 299.119 233.679 299.127C233.077 299.127 232.531 299.482 232.531 300.453V302.512C232.533 302.533 232.526 302.553 232.512 302.569C232.498 302.584 232.478 302.593 232.457 302.593H231.111C231.066 302.593 231.03 302.557 231.03 302.512V297.771C231.03 297.75 231.039 297.73 231.054 297.716C231.069 297.701 231.09 297.694 231.111 297.696H232.438C232.48 297.696 232.513 297.73 232.513 297.771V298.356C232.771 297.896 233.265 297.621 233.791 297.646C233.901 297.646 234.012 297.657 234.12 297.677C234.156 297.688 234.181 297.721 234.182 297.758ZM239.519 297.728C239.509 297.696 239.479 297.673 239.445 297.672H237.937C237.904 297.67 237.874 297.691 237.863 297.722L236.95 300.447C236.95 300.468 236.934 300.485 236.913 300.485C236.893 300.485 236.876 300.468 236.876 300.447L236.107 297.728C236.098 297.695 236.067 297.671 236.032 297.672H234.648C234.624 297.674 234.602 297.685 234.588 297.705C234.574 297.724 234.568 297.749 234.574 297.772L236.076 302.538C236.082 302.573 236.114 302.598 236.15 302.594H237.552C237.588 302.598 237.62 302.573 237.627 302.538L238.62 299.545C238.62 299.525 238.636 299.508 238.657 299.508C238.677 299.508 238.694 299.525 238.694 299.545L239.705 302.544C239.718 302.574 239.747 302.594 239.78 302.594H241.157C241.194 302.596 241.227 302.573 241.238 302.538L242.709 297.797C242.714 297.773 242.709 297.749 242.695 297.729C242.68 297.71 242.658 297.698 242.634 297.697H241.325C241.291 297.7 241.262 297.722 241.25 297.753L240.481 300.479C240.481 300.499 240.464 300.516 240.444 300.516C240.423 300.516 240.407 300.499 240.407 300.479L239.507 297.753L239.519 297.728ZM244.512 301.019C244.727 301.266 245.035 301.412 245.362 301.42C245.687 301.41 245.993 301.264 246.204 301.016C246.415 300.768 246.513 300.443 246.473 300.12C246.517 299.796 246.421 299.469 246.208 299.221C245.996 298.974 245.688 298.829 245.362 298.825C244.717 298.825 244.233 299.267 244.233 300.12C244.196 300.445 244.297 300.772 244.512 301.019ZM247.846 297.685H246.55C246.529 297.684 246.508 297.691 246.493 297.705C246.478 297.719 246.469 297.739 246.469 297.76V298.245C246.196 297.76 245.663 297.481 245.11 297.536C244.443 297.534 243.804 297.812 243.35 298.302C242.895 298.792 242.665 299.451 242.715 300.118C242.668 300.795 242.906 301.461 243.37 301.955C243.834 302.449 244.483 302.726 245.16 302.719C245.713 302.749 246.231 302.449 246.481 301.954V302.501C246.48 302.522 246.487 302.543 246.501 302.558C246.515 302.573 246.535 302.582 246.556 302.582H247.865C247.91 302.582 247.946 302.546 247.946 302.501V297.772C247.946 297.751 247.937 297.731 247.922 297.717C247.906 297.703 247.886 297.696 247.865 297.698L247.846 297.685ZM248.756 302.585C248.711 302.585 248.675 302.548 248.675 302.504V295.541C248.675 295.496 248.711 295.46 248.756 295.46H250.096C250.141 295.46 250.177 295.496 250.177 295.541V302.504C250.177 302.548 250.141 302.585 250.096 302.585H248.756ZM250.892 302.504C250.892 302.548 250.928 302.585 250.973 302.585H252.313C252.357 302.585 252.394 302.548 252.394 302.504V295.541C252.394 295.496 252.357 295.46 252.313 295.46H250.966C250.922 295.46 250.886 295.496 250.886 295.541V302.516L250.892 302.504ZM259.372 300.185C259.39 300.157 259.39 300.12 259.372 300.092L259.347 300.104L257.746 297.821C257.731 297.797 257.729 297.767 257.742 297.741C257.755 297.715 257.78 297.699 257.808 297.696H259.384C259.41 297.696 259.434 297.71 259.446 297.734L260.272 298.978C260.28 298.989 260.292 298.995 260.306 298.995C260.319 298.995 260.332 298.989 260.34 298.978L261.14 297.734C261.156 297.711 261.181 297.697 261.208 297.696H262.691C262.72 297.699 262.745 297.715 262.758 297.741C262.771 297.767 262.769 297.797 262.753 297.821L261.184 300.036C261.166 300.064 261.166 300.101 261.184 300.129C261.699 300.87 262.288 301.716 262.822 302.463C262.838 302.488 262.839 302.519 262.824 302.545C262.81 302.571 262.783 302.587 262.753 302.587H261.208C261.18 302.59 261.153 302.575 261.14 302.55L260.29 301.255C260.271 301.237 260.241 301.237 260.222 301.255C260.095 301.445 259.947 301.674 259.8 301.902L259.8 301.903C259.653 302.131 259.505 302.36 259.378 302.55C259.365 302.575 259.338 302.59 259.31 302.587H257.858C257.828 302.587 257.801 302.571 257.787 302.545C257.773 302.519 257.774 302.488 257.79 302.463L259.372 300.185ZM255.347 298.731C255.581 298.703 255.816 298.77 256 298.918C256.185 299.065 256.302 299.28 256.327 299.515C256.329 299.526 256.326 299.537 256.319 299.546C256.312 299.554 256.301 299.559 256.29 299.559H254.429C254.418 299.559 254.407 299.554 254.4 299.546C254.393 299.537 254.389 299.526 254.391 299.515C254.469 299.051 254.877 298.715 255.347 298.731ZM257.753 300.524H254.377V300.549C254.365 300.548 254.353 300.554 254.345 300.564C254.338 300.574 254.336 300.587 254.34 300.599C254.441 301.12 254.909 301.489 255.438 301.463C255.772 301.489 256.095 301.341 256.294 301.071C256.311 301.051 256.336 301.04 256.363 301.04H257.604C257.628 301.042 257.65 301.053 257.666 301.072C257.681 301.091 257.688 301.116 257.684 301.14C257.682 301.167 257.682 301.194 257.684 301.221C257.374 302.214 256.417 302.858 255.382 302.77C254.688 302.794 254.016 302.524 253.529 302.028C253.042 301.531 252.785 300.852 252.82 300.157C252.794 299.481 253.045 298.823 253.513 298.336C253.981 297.849 254.627 297.574 255.302 297.575C255.976 297.515 256.643 297.758 257.122 298.238C257.601 298.719 257.843 299.387 257.784 300.063C257.787 300.218 257.776 300.372 257.753 300.524ZM218.112 299.732L217.646 301.014C217.628 301.043 217.596 301.06 217.562 301.06C217.529 301.06 217.497 301.043 217.479 301.014L216.722 300.1L217.963 299.577C217.998 299.56 218.041 299.567 218.069 299.595C218.096 299.623 218.104 299.666 218.087 299.701L218.112 299.732ZM217.975 297.937C218.477 297.731 219.054 297.846 219.439 298.23L219.408 298.286C219.8 298.671 219.929 299.251 219.737 299.767L219.011 301.739C218.827 302.259 218.388 302.647 217.851 302.766C217.752 302.774 217.652 302.774 217.553 302.766C217.102 302.768 216.674 302.567 216.387 302.218L212.043 296.991C212.025 296.963 211.993 296.945 211.959 296.945C211.925 296.945 211.894 296.963 211.876 296.991L210.511 300.824C210.494 300.86 210.501 300.903 210.529 300.93C210.557 300.958 210.599 300.966 210.635 300.949L212.36 300.239C212.557 300.158 212.78 300.164 212.973 300.255C213.167 300.346 213.313 300.514 213.377 300.718C213.497 301.116 213.296 301.539 212.912 301.695L210.641 302.622C210.223 302.802 209.743 302.76 209.363 302.51C208.831 302.155 208.613 301.481 208.835 300.88L210.511 296.351C210.7 295.819 211.161 295.431 211.715 295.334C212.27 295.238 212.834 295.448 213.191 295.884L215.673 298.877L217.975 297.937Z" fill="url(#paint5_linear_236_54212)"/>
<path fill-rule="evenodd" clip-rule="evenodd" d="M250.822 365.356C251.912 365.922 253.269 366.627 253.262 368.264H253.287C253.28 370.424 251.424 371.824 248.585 371.824C247.557 371.828 246.537 371.64 245.578 371.27L246.066 368.992C246.921 369.445 247.879 369.67 248.848 369.646C249.623 369.633 250.461 369.328 250.461 368.631C250.467 368.171 250.086 367.835 249.06 367.337C248.035 366.839 246.691 366.005 246.691 364.505C246.71 362.483 248.591 361.07 251.261 361.07C252.115 361.075 252.962 361.231 253.762 361.531L253.287 363.74C252.457 363.35 251.537 363.191 250.623 363.279C249.842 363.379 249.479 363.777 249.479 364.151C249.469 364.653 250.085 364.973 250.822 365.356ZM237.694 371.656L242.071 361.263H239.232L236.425 368.339L235.287 362.321C235.194 361.707 234.66 361.256 234.037 361.263H229.436L229.373 361.562C230.3 361.745 231.201 362.042 232.055 362.446C232.407 362.623 232.644 362.969 232.68 363.36L234.837 371.656H237.694ZM260.345 371.656H262.845L260.638 361.263H258.325C257.823 361.264 257.371 361.563 257.175 362.022L253.124 371.656H255.962L256.525 370.106H259.969L260.345 371.656ZM258.719 364.07L257.325 367.972H259.538L258.719 364.07ZM245.934 361.263L243.715 371.656H240.995L243.227 361.263H245.934ZM243.727 373.902C243.935 373.863 244.272 373.823 244.609 373.823C245.095 373.823 245.402 373.902 245.639 374.091C245.838 374.239 245.947 374.457 245.947 374.754C245.947 375.111 245.709 375.428 245.312 375.577V375.587C245.669 375.676 246.085 375.973 246.085 376.528C246.085 376.845 245.957 377.093 245.768 377.281C245.511 377.519 245.085 377.628 244.48 377.628C244.143 377.628 243.896 377.608 243.727 377.588V373.902ZM244.213 375.438H244.649C245.164 375.438 245.461 375.171 245.461 374.814C245.461 374.378 245.124 374.2 244.639 374.2C244.443 374.2 244.319 374.216 244.238 374.226L244.213 374.229V375.438ZM244.213 377.221C244.312 377.241 244.45 377.241 244.619 377.241C245.114 377.241 245.58 377.063 245.58 376.518C245.58 376.003 245.144 375.795 244.619 375.795H244.223V377.221H244.213ZM248.969 376.855C248.969 377.132 248.979 377.38 248.989 377.588H248.553L248.523 377.152H248.513C248.384 377.37 248.107 377.647 247.621 377.647C247.195 377.647 246.69 377.41 246.69 376.468V374.903H247.176V376.389C247.176 376.904 247.334 377.241 247.77 377.241C248.097 377.241 248.325 377.013 248.414 376.795C248.444 376.726 248.454 376.637 248.454 376.548V374.903H248.939V376.855H248.969ZM250.355 377.291C250.107 377.291 249.859 377.192 249.711 377.093L249.622 377.469C249.81 377.578 250.077 377.648 250.375 377.648C251.009 377.648 251.375 377.321 251.375 376.845C251.375 376.439 251.138 376.211 250.672 376.033C250.315 375.894 250.157 375.795 250.157 375.577C250.157 375.379 250.315 375.21 250.603 375.21C250.85 375.21 251.039 375.299 251.148 375.369L251.266 375.012C251.118 374.923 250.87 374.844 250.603 374.844C250.018 374.844 249.671 375.2 249.671 375.636C249.671 375.963 249.899 376.231 250.385 376.399C250.741 376.538 250.88 376.657 250.88 376.895C250.88 377.113 250.712 377.291 250.355 377.291ZM252.516 374.15C252.526 374.318 252.397 374.447 252.209 374.447C252.04 374.447 251.912 374.318 251.912 374.15C251.912 373.982 252.04 373.843 252.219 373.843C252.407 373.843 252.516 373.982 252.516 374.15ZM251.971 377.588V374.903H252.456V377.588H251.971ZM253.248 374.913C253.258 375.131 253.268 375.359 253.268 375.636H253.288V377.598H253.773V375.983C253.773 375.904 253.783 375.815 253.803 375.755C253.882 375.488 254.14 375.26 254.457 375.26C254.923 375.26 255.081 375.616 255.081 376.052V377.598H255.567V375.993C255.567 375.071 254.992 374.853 254.616 374.853C254.17 374.853 253.853 375.101 253.724 375.359H253.714L253.684 374.913H253.248ZM256.628 376.34C256.638 377.004 257.064 377.271 257.549 377.271C257.896 377.271 258.114 377.212 258.292 377.132L258.372 377.479C258.203 377.558 257.906 377.648 257.48 377.648C256.657 377.648 256.162 377.103 256.162 376.29C256.162 375.478 256.638 374.844 257.42 374.844C258.292 374.844 258.53 375.617 258.53 376.112C258.53 376.211 258.52 376.29 258.51 376.34H256.628ZM258.054 375.993C258.064 375.686 257.926 375.2 257.381 375.2C256.885 375.2 256.667 375.656 256.628 375.993H258.054ZM259.709 377.291C259.462 377.291 259.214 377.192 259.065 377.093L258.976 377.469C259.164 377.578 259.432 377.648 259.729 377.648C260.363 377.648 260.73 377.321 260.73 376.845C260.73 376.439 260.492 376.211 260.026 376.033C259.67 375.894 259.511 375.795 259.511 375.577C259.511 375.379 259.67 375.21 259.957 375.21C260.205 375.21 260.393 375.299 260.502 375.369L260.621 375.012C260.472 374.923 260.225 374.844 259.957 374.844C259.372 374.844 259.026 375.2 259.026 375.636C259.026 375.963 259.254 376.231 259.739 376.399C260.096 376.538 260.234 376.657 260.234 376.895C260.234 377.113 260.066 377.291 259.709 377.291ZM261.264 377.093C261.412 377.192 261.66 377.291 261.908 377.291C262.264 377.291 262.433 377.113 262.433 376.895C262.433 376.657 262.294 376.538 261.937 376.399C261.452 376.231 261.224 375.963 261.224 375.636C261.224 375.2 261.571 374.844 262.155 374.844C262.423 374.844 262.671 374.923 262.819 375.012L262.7 375.369C262.591 375.299 262.403 375.21 262.155 375.21C261.868 375.21 261.71 375.379 261.71 375.577C261.71 375.795 261.868 375.894 262.225 376.033C262.69 376.211 262.928 376.439 262.928 376.845C262.928 377.321 262.562 377.648 261.928 377.648C261.63 377.648 261.363 377.578 261.174 377.469L261.264 377.093Z" fill="#D7DBE0"/>
<mask id="mask1_236_54212" style="mask-type:luminance" maskUnits="userSpaceOnUse" x="134" y="322" width="18" height="17">
<path fill-rule="evenodd" clip-rule="evenodd" d="M149.581 338.835C150.134 338.844 150.668 338.631 151.066 338.245C151.463 337.858 151.691 337.329 151.699 336.774V324.409C151.679 323.256 150.731 322.336 149.581 322.354H136.898C136.345 322.344 135.811 322.555 135.413 322.941C135.016 323.326 134.788 323.855 134.779 324.409V336.774C134.786 337.329 135.013 337.86 135.411 338.247C135.809 338.634 136.344 338.846 136.898 338.835H149.581Z" fill="white"/>
</mask>
<g mask="url(#mask1_236_54212)">
<path d="M131.8 341.979V319.211H154.681V341.979H131.8Z" fill="url(#paint6_linear_236_54212)"/>
</g>
<path fill-rule="evenodd" clip-rule="evenodd" d="M136.941 321.719H149.579V321.725C151.119 321.725 152.368 322.975 152.371 324.518V336.668C152.371 338.214 151.121 339.468 149.579 339.468H136.941C136.201 339.468 135.491 339.173 134.967 338.648C134.444 338.123 134.149 337.411 134.149 336.668V324.518C134.149 322.972 135.399 321.719 136.941 321.719ZM151.713 324.518C151.71 323.334 150.761 322.372 149.581 322.355V322.349H136.943C135.749 322.349 134.78 323.32 134.78 324.518V336.667C134.78 337.865 135.749 338.836 136.943 338.836H149.581C150.764 338.819 151.713 337.853 151.713 336.667V324.518Z" fill="url(#paint7_linear_236_54212)"/>
<path fill-rule="evenodd" clip-rule="evenodd" d="M140.419 327.762H146.06V333.419H140.419V327.762ZM145.713 333.072V328.112H140.766V333.072H145.713Z" fill="#232020"/>
<path d="M138.936 326.1L139.059 326.15L140.725 327.815L140.48 328.062L138.864 326.447L134.78 326.448V326.1H138.936Z" fill="#232020"/>
<path d="M151.711 326.1V326.448L147.62 326.447L146.011 328.061L145.766 327.815L147.426 326.151L147.548 326.1H151.711Z" fill="#232020"/>
<path d="M140.48 333.125L140.725 333.372L139.059 335.036L138.936 335.087H134.78V334.739L138.864 334.738L140.48 333.125Z" fill="#232020"/>
<path d="M146.011 333.125L147.619 334.738L151.711 334.739V335.087H147.548L147.426 335.036L145.766 333.371L146.011 333.125Z" fill="#232020"/>
<path d="M143.418 322.352V327.938H143.07V322.352H143.418Z" fill="#232020"/>
<path d="M143.418 333.247V338.833H143.07V333.247H143.418Z" fill="#232020"/>
<path d="M151.711 330.418V330.766H145.971V330.418H151.711Z" fill="#232020"/>
<path d="M140.521 330.418V330.766H134.78V330.418H140.521Z" fill="#232020"/>
<path d="M124.135 399.598H116.489C116.262 399.598 116.079 399.781 116.079 400.007V405.469C116.079 405.695 116.262 405.878 116.489 405.878H124.135C124.361 405.878 124.544 405.695 124.544 405.469V400.007C124.544 399.781 124.361 399.598 124.135 399.598ZM123.725 400.417V401.646H116.898V400.417H123.725V400.417ZM116.898 405.059V402.738H123.725V405.059H116.898Z" fill="#612FFF"/>
<path d="M131.77 404.52L133.35 400.139H134.357L132.231 405.766H131.262L129.167 400.139H130.199L131.77 404.52ZM135.942 405.766H135.029V401.901H135.942V405.766ZM134.886 400.544C134.886 400.21 135.156 399.941 135.482 399.941C135.815 399.941 136.085 400.21 136.085 400.544C136.085 400.877 135.815 401.139 135.482 401.139C135.156 401.139 134.886 400.877 134.886 400.544ZM137.781 403.409H139.678C139.662 402.956 139.361 402.551 138.726 402.551C138.146 402.551 137.813 402.996 137.781 403.409ZM139.781 404.416L140.559 404.663C140.353 405.337 139.742 405.885 138.813 405.885C137.765 405.885 136.837 405.123 136.837 403.813C136.837 402.591 137.742 401.782 138.718 401.782C139.908 401.782 140.607 402.567 140.607 403.79C140.607 403.94 140.591 404.067 140.583 404.083H137.758C137.781 404.67 138.242 405.091 138.813 405.091C139.369 405.091 139.654 404.797 139.781 404.416ZM143.7 401.901H144.653L145.565 404.575L146.335 401.901H147.272L146.034 405.766H145.113L144.153 402.988L143.216 405.766H142.272L141.018 401.901H142.002L142.788 404.575L143.7 401.901ZM151.539 402.631C150.975 402.631 150.476 403.051 150.476 403.829C150.476 404.607 150.975 405.043 151.555 405.043C152.158 405.043 152.436 404.623 152.523 404.329L153.333 404.623C153.15 405.226 152.571 405.885 151.555 405.885C150.42 405.885 149.555 405.004 149.555 403.829C149.555 402.639 150.42 401.782 151.531 401.782C152.571 401.782 153.142 402.432 153.301 403.051L152.475 403.353C152.388 403.012 152.126 402.631 151.539 402.631ZM153.918 404.718C153.918 404.028 154.426 403.647 155.085 403.551L156.077 403.401C156.299 403.369 156.363 403.258 156.363 403.123C156.363 402.798 156.141 402.536 155.633 402.536C155.149 402.536 154.879 402.845 154.839 403.234L153.998 403.044C154.069 402.377 154.672 401.782 155.625 401.782C156.815 401.782 157.267 402.456 157.267 403.226V405.147C157.267 405.496 157.307 405.726 157.315 405.766H156.458C156.45 405.742 156.418 405.583 156.418 405.274C156.236 405.567 155.855 405.885 155.228 405.885C154.418 405.885 153.918 405.329 153.918 404.718ZM155.402 405.162C155.918 405.162 156.363 404.916 156.363 404.163V403.988L155.355 404.139C155.069 404.186 154.839 404.345 154.839 404.663C154.839 404.924 155.037 405.162 155.402 405.162ZM160.642 401.877V402.813C160.539 402.798 160.436 402.79 160.341 402.79C159.626 402.79 159.301 403.202 159.301 403.924V405.766H158.38V401.901H159.277V402.52C159.46 402.099 159.888 401.853 160.396 401.853C160.507 401.853 160.602 401.869 160.642 401.877ZM161.992 403.821C161.992 404.559 162.405 405.051 163.032 405.051C163.635 405.051 164.056 404.551 164.056 403.813C164.056 403.075 163.643 402.615 163.04 402.615C162.437 402.615 161.992 403.083 161.992 403.821ZM164.944 400.02V405.059C164.944 405.408 164.976 405.702 164.984 405.766H164.103C164.087 405.678 164.064 405.424 164.064 405.266C163.881 405.591 163.476 405.861 162.929 405.861C161.818 405.861 161.072 404.988 161.072 403.821C161.072 402.71 161.826 401.798 162.913 401.798C163.587 401.798 163.929 402.107 164.048 402.353V400.02H164.944ZM168.681 403.821C168.681 404.559 169.093 405.051 169.72 405.051C170.323 405.051 170.744 404.551 170.744 403.813C170.744 403.075 170.331 402.615 169.728 402.615C169.125 402.615 168.681 403.083 168.681 403.821ZM171.633 400.02V405.059C171.633 405.408 171.665 405.702 171.672 405.766H170.792C170.776 405.678 170.752 405.424 170.752 405.266C170.569 405.591 170.165 405.861 169.617 405.861C168.506 405.861 167.76 404.988 167.76 403.821C167.76 402.71 168.514 401.798 169.601 401.798C170.276 401.798 170.617 402.107 170.736 402.353V400.02H171.633ZM173.471 403.409H175.367C175.352 402.956 175.05 402.551 174.415 402.551C173.836 402.551 173.502 402.996 173.471 403.409ZM175.471 404.416L176.248 404.663C176.042 405.337 175.431 405.885 174.502 405.885C173.455 405.885 172.526 405.123 172.526 403.813C172.526 402.591 173.431 401.782 174.407 401.782C175.598 401.782 176.296 402.567 176.296 403.79C176.296 403.94 176.28 404.067 176.272 404.083H173.447C173.471 404.67 173.931 405.091 174.502 405.091C175.058 405.091 175.344 404.797 175.471 404.416ZM178.365 400.718V401.901H179.167V402.718H178.365V404.512C178.365 404.853 178.516 404.996 178.857 404.996C178.984 404.996 179.135 404.972 179.175 404.964V405.726C179.119 405.75 178.945 405.813 178.611 405.813C177.897 405.813 177.453 405.385 177.453 404.663V402.718H176.738V401.901H176.937C177.35 401.901 177.532 401.639 177.532 401.298V400.718H178.365ZM179.812 404.718C179.812 404.028 180.32 403.647 180.978 403.551L181.97 403.401C182.192 403.369 182.256 403.258 182.256 403.123C182.256 402.798 182.034 402.536 181.526 402.536C181.042 402.536 180.772 402.845 180.732 403.234L179.891 403.044C179.962 402.377 180.566 401.782 181.518 401.782C182.708 401.782 183.161 402.456 183.161 403.226V405.147C183.161 405.496 183.2 405.726 183.208 405.766H182.351C182.343 405.742 182.311 405.583 182.311 405.274C182.129 405.567 181.748 405.885 181.121 405.885C180.312 405.885 179.812 405.329 179.812 404.718ZM181.296 405.162C181.812 405.162 182.256 404.916 182.256 404.163V403.988L181.248 404.139C180.962 404.186 180.732 404.345 180.732 404.663C180.732 404.924 180.931 405.162 181.296 405.162ZM185.186 405.766H184.273V401.901H185.186V405.766ZM184.131 400.544C184.131 400.21 184.4 399.941 184.726 399.941C185.059 399.941 185.329 400.21 185.329 400.544C185.329 400.877 185.059 401.139 184.726 401.139C184.4 401.139 184.131 400.877 184.131 400.544ZM187.248 405.766H186.327V400.02H187.248V405.766ZM188.119 404.718L188.921 404.496C188.952 404.845 189.214 405.155 189.706 405.155C190.087 405.155 190.286 404.948 190.286 404.71C190.286 404.504 190.143 404.345 189.833 404.282L189.262 404.155C188.579 404.004 188.222 403.559 188.222 403.028C188.222 402.353 188.841 401.782 189.643 401.782C190.722 401.782 191.071 402.48 191.135 402.861L190.357 403.083C190.325 402.861 190.159 402.504 189.643 402.504C189.317 402.504 189.087 402.71 189.087 402.948C189.087 403.155 189.238 403.305 189.476 403.353L190.063 403.472C190.793 403.631 191.174 404.075 191.174 404.647C191.174 405.234 190.698 405.885 189.714 405.885C188.595 405.885 188.167 405.155 188.119 404.718Z" fill="#612FFF"/>
<path fill-rule="evenodd" clip-rule="evenodd" d="M214.488 402.766C214.488 403.642 213.777 404.353 212.901 404.353C212.024 404.353 211.313 403.642 211.313 402.766C211.313 401.889 212.024 401.179 212.901 401.179C213.777 401.179 214.488 401.889 214.488 402.766ZM213.694 402.766C213.694 403.204 213.339 403.559 212.901 403.559C212.462 403.559 212.107 403.204 212.107 402.766C212.107 402.328 212.462 401.972 212.901 401.972C213.339 401.972 213.694 402.328 213.694 402.766Z" fill="#612FFF"/>
<path fill-rule="evenodd" clip-rule="evenodd" d="M214.392 399.352C214.248 399.122 214.051 398.929 213.817 398.788C212.993 398.291 211.915 398.544 211.409 399.352L211.22 399.655C211.172 399.732 211.089 399.779 210.997 399.781L210.636 399.791C210.361 399.798 210.091 399.869 209.85 399.998C209 400.45 208.684 401.493 209.144 402.327L209.317 402.64C209.36 402.718 209.36 402.813 209.317 402.892L209.144 403.204C209.013 403.442 208.941 403.706 208.934 403.976C208.907 404.925 209.669 405.715 210.636 405.74L210.997 405.75C211.089 405.753 211.172 405.8 211.22 405.876L211.409 406.179C211.553 406.409 211.75 406.603 211.985 406.744C212.808 407.241 213.886 406.988 214.392 406.179L214.581 405.876C214.629 405.8 214.713 405.753 214.804 405.75L215.166 405.74C215.441 405.733 215.71 405.662 215.952 405.534C216.802 405.082 217.118 404.039 216.657 403.204L216.485 402.892C216.441 402.813 216.441 402.718 216.485 402.64L216.657 402.327C216.788 402.09 216.86 401.825 216.868 401.555C216.894 400.607 216.132 399.817 215.166 399.791L214.804 399.781C214.713 399.779 214.629 399.732 214.581 399.655L214.392 399.352ZM211.019 404.957L210.657 404.947C210.115 404.933 209.713 404.495 209.727 403.998C209.731 403.855 209.769 403.715 209.839 403.588L210.011 403.275C210.187 402.958 210.187 402.574 210.011 402.256L209.839 401.944C209.596 401.504 209.757 400.946 210.222 400.699C210.355 400.628 210.504 400.589 210.657 400.584L211.019 400.575C211.371 400.565 211.702 400.382 211.893 400.076L212.082 399.773C212.355 399.337 212.949 399.191 213.407 399.467C213.535 399.545 213.642 399.65 213.719 399.773L213.909 400.076C214.1 400.382 214.43 400.565 214.783 400.575L215.145 400.584C215.686 400.599 216.088 401.037 216.074 401.533C216.071 401.676 216.032 401.817 215.962 401.944L215.79 402.256C215.615 402.574 215.615 402.958 215.79 403.275L215.962 403.588C216.205 404.028 216.045 404.585 215.579 404.833C215.446 404.904 215.297 404.943 215.145 404.947L214.783 404.957C214.43 404.966 214.1 405.15 213.909 405.455L213.719 405.758C213.446 406.194 212.852 406.341 212.395 406.064C212.266 405.987 212.159 405.882 212.082 405.758L211.893 405.455C211.702 405.15 211.371 404.966 211.019 404.957Z" fill="#612FFF"/>
<path d="M228.326 405.766H227.382V401.623L225.628 405.766H224.803L223.065 401.639V405.766H222.136V400.139H223.406L225.231 404.432L227.033 400.139H228.326V405.766ZM229.304 404.718C229.304 404.028 229.812 403.647 230.471 403.551L231.463 403.401C231.685 403.369 231.748 403.258 231.748 403.123C231.748 402.798 231.526 402.536 231.018 402.536C230.534 402.536 230.264 402.845 230.225 403.234L229.383 403.044C229.455 402.377 230.058 401.782 231.01 401.782C232.201 401.782 232.653 402.456 232.653 403.226V405.147C232.653 405.496 232.693 405.726 232.701 405.766H231.844C231.836 405.742 231.804 405.583 231.804 405.274C231.621 405.567 231.241 405.885 230.614 405.885C229.804 405.885 229.304 405.329 229.304 404.718ZM230.788 405.162C231.304 405.162 231.748 404.916 231.748 404.163V403.988L230.741 404.139C230.455 404.186 230.225 404.345 230.225 404.663C230.225 404.924 230.423 405.162 230.788 405.162ZM234.687 403.536V405.766H233.766V401.901H234.663V402.417C234.917 401.972 235.377 401.79 235.806 401.79C236.75 401.79 237.202 402.472 237.202 403.321V405.766H236.282V403.48C236.282 403.004 236.068 402.623 235.488 402.623C234.964 402.623 234.687 403.028 234.687 403.536ZM238.07 404.718C238.07 404.028 238.577 403.647 239.236 403.551L240.228 403.401C240.45 403.369 240.514 403.258 240.514 403.123C240.514 402.798 240.292 402.536 239.784 402.536C239.3 402.536 239.03 402.845 238.99 403.234L238.149 403.044C238.22 402.377 238.823 401.782 239.776 401.782C240.966 401.782 241.419 402.456 241.419 403.226V405.147C241.419 405.496 241.458 405.726 241.466 405.766H240.609C240.601 405.742 240.569 405.583 240.569 405.274C240.387 405.567 240.006 405.885 239.379 405.885C238.57 405.885 238.07 405.329 238.07 404.718ZM239.554 405.162C240.069 405.162 240.514 404.916 240.514 404.163V403.988L239.506 404.139C239.22 404.186 238.99 404.345 238.99 404.663C238.99 404.924 239.189 405.162 239.554 405.162ZM242.285 405.98L243.135 405.758C243.198 406.234 243.571 406.591 244.103 406.591C244.833 406.591 245.198 406.218 245.198 405.432V405.028C245.031 405.329 244.642 405.591 244.079 405.591C243.047 405.591 242.293 404.797 242.293 403.71C242.293 402.678 243.016 401.829 244.079 401.829C244.682 401.829 245.055 402.075 245.222 402.393V401.901H246.111V405.401C246.111 406.432 245.579 407.393 244.127 407.393C243.103 407.393 242.389 406.758 242.285 405.98ZM244.23 404.805C244.817 404.805 245.222 404.377 245.222 403.71C245.222 403.051 244.801 402.623 244.23 402.623C243.642 402.623 243.222 403.051 243.222 403.71C243.222 404.385 243.627 404.805 244.23 404.805ZM247.95 403.409H249.846C249.831 402.956 249.529 402.551 248.894 402.551C248.315 402.551 247.981 402.996 247.95 403.409ZM249.95 404.416L250.727 404.663C250.521 405.337 249.91 405.885 248.981 405.885C247.934 405.885 247.005 405.123 247.005 403.813C247.005 402.591 247.91 401.782 248.886 401.782C250.077 401.782 250.775 402.567 250.775 403.79C250.775 403.94 250.759 404.067 250.751 404.083H247.926C247.95 404.67 248.41 405.091 248.981 405.091C249.537 405.091 249.823 404.797 249.95 404.416ZM255.329 402.631C254.765 402.631 254.265 403.051 254.265 403.829C254.265 404.607 254.765 405.043 255.345 405.043C255.948 405.043 256.226 404.623 256.313 404.329L257.122 404.623C256.94 405.226 256.361 405.885 255.345 405.885C254.21 405.885 253.345 405.004 253.345 403.829C253.345 402.639 254.21 401.782 255.321 401.782C256.361 401.782 256.932 402.432 257.091 403.051L256.265 403.353C256.178 403.012 255.916 402.631 255.329 402.631ZM257.708 404.718C257.708 404.028 258.216 403.647 258.875 403.551L259.867 403.401C260.089 403.369 260.153 403.258 260.153 403.123C260.153 402.798 259.93 402.536 259.423 402.536C258.938 402.536 258.669 402.845 258.629 403.234L257.788 403.044C257.859 402.377 258.462 401.782 259.415 401.782C260.605 401.782 261.057 402.456 261.057 403.226V405.147C261.057 405.496 261.097 405.726 261.105 405.766H260.248C260.24 405.742 260.208 405.583 260.208 405.274C260.026 405.567 259.645 405.885 259.018 405.885C258.208 405.885 257.708 405.329 257.708 404.718ZM259.192 405.162C259.708 405.162 260.153 404.916 260.153 404.163V403.988L259.145 404.139C258.859 404.186 258.629 404.345 258.629 404.663C258.629 404.924 258.827 405.162 259.192 405.162ZM264.432 401.877V402.813C264.329 402.798 264.226 402.79 264.13 402.79C263.416 402.79 263.091 403.202 263.091 403.924V405.766H262.17V401.901H263.067V402.52C263.25 402.099 263.678 401.853 264.186 401.853C264.297 401.853 264.392 401.869 264.432 401.877ZM265.782 403.821C265.782 404.559 266.195 405.051 266.822 405.051C267.425 405.051 267.846 404.551 267.846 403.813C267.846 403.075 267.433 402.615 266.83 402.615C266.227 402.615 265.782 403.083 265.782 403.821ZM268.734 400.02V405.059C268.734 405.408 268.766 405.702 268.774 405.766H267.893C267.877 405.678 267.853 405.424 267.853 405.266C267.671 405.591 267.266 405.861 266.719 405.861C265.608 405.861 264.862 404.988 264.862 403.821C264.862 402.71 265.615 401.798 266.703 401.798C267.377 401.798 267.719 402.107 267.838 402.353V400.02H268.734Z" fill="#612FFF"/>
<g clip-path="url(#clip3_236_54212)">
<path d="M111.889 244.577H112.888V238.985H111.893L110.432 240.008V240.969L111.823 239.993H111.889V244.577Z" fill="black"/>
<path d="M116.43 244.713C117.852 244.713 118.697 243.6 118.697 241.717C118.697 241.008 118.562 240.411 118.302 239.95C117.926 239.233 117.279 238.846 116.461 238.846C115.244 238.846 114.384 239.663 114.384 240.81C114.384 241.888 115.159 242.67 116.225 242.67C116.88 242.67 117.411 242.364 117.674 241.833H117.686C117.686 241.833 117.701 241.833 117.705 241.833C117.713 241.833 117.74 241.833 117.74 241.833C117.74 243.112 117.256 243.876 116.438 243.876C115.957 243.876 115.585 243.612 115.458 243.19H114.462C114.628 244.108 115.407 244.713 116.43 244.713ZM116.465 241.876C115.822 241.876 115.365 241.419 115.365 240.779C115.365 240.155 115.845 239.679 116.469 239.679C117.093 239.679 117.573 240.163 117.573 240.795C117.573 241.419 117.105 241.876 116.465 241.876Z" fill="black"/>
<path d="M120.453 243.984C120.821 243.984 121.073 243.721 121.073 243.372C121.073 243.019 120.821 242.76 120.453 242.76C120.088 242.76 119.833 243.019 119.833 243.372C119.833 243.721 120.088 243.984 120.453 243.984ZM120.453 241.078C120.821 241.078 121.073 240.818 121.073 240.469C121.073 240.117 120.821 239.857 120.453 239.857C120.088 239.857 119.833 240.117 119.833 240.469C119.833 240.818 120.088 241.078 120.453 241.078Z" fill="black"/>
<path d="M124.359 244.716C125.696 244.716 126.49 243.631 126.49 241.783C126.49 239.927 125.684 238.846 124.359 238.846C123.029 238.846 122.223 239.927 122.223 241.775C122.223 243.631 123.018 244.716 124.359 244.716ZM124.359 243.887C123.649 243.887 123.235 243.151 123.235 241.775C123.235 240.411 123.657 239.679 124.359 239.679C125.06 239.679 125.479 240.407 125.479 241.775C125.479 243.151 125.068 243.887 124.359 243.887Z" fill="black"/>
<path d="M127.528 240.62V240.636H128.466V240.62C128.466 240.051 128.861 239.667 129.447 239.667C129.997 239.667 130.4 240.024 130.4 240.516C130.4 240.911 130.21 241.202 129.447 241.977L127.583 243.883V244.577H131.465V243.728H128.954V243.662L130.125 242.488C131.074 241.55 131.38 241.054 131.38 240.454C131.38 239.52 130.582 238.846 129.478 238.846C128.331 238.846 127.528 239.574 127.528 240.62Z" fill="black"/>
<path opacity="0.44" fill-rule="evenodd" clip-rule="evenodd" d="M277.73 241.137L277.974 241.299C278.317 241.528 278.524 241.914 278.524 242.327C278.524 242.741 278.317 243.126 277.974 243.356L277.73 243.518V241.137ZM266.531 239.285H276.231C276.767 239.285 277.201 239.759 277.201 240.343V244.311C277.201 244.896 276.767 245.37 276.231 245.37H266.531C265.996 245.37 265.562 244.896 265.562 244.311V240.343C265.562 239.759 265.996 239.285 266.531 239.285ZM266.572 239.814C266.306 239.814 266.091 240.051 266.091 240.343V244.311C266.091 244.604 266.306 244.84 266.572 244.84H276.191C276.457 244.84 276.672 244.604 276.672 244.311V240.343C276.672 240.051 276.457 239.814 276.191 239.814H266.572Z" fill="black"/>
<path fill-rule="evenodd" clip-rule="evenodd" d="M267.081 240.342H274.025V244.31H267.081C266.825 244.31 266.618 244.073 266.618 243.781V240.871C266.618 240.579 266.825 240.342 267.081 240.342Z" fill="black"/>
<path fill-rule="evenodd" clip-rule="evenodd" d="M251.01 239.813C250.718 239.813 250.481 240.05 250.481 240.343V244.575C250.481 244.867 250.718 245.104 251.01 245.104H251.539C251.832 245.104 252.068 244.867 252.068 244.575V240.343C252.068 240.05 251.832 239.813 251.539 239.813H251.01ZM248.102 241.398C248.102 241.106 248.339 240.869 248.631 240.869H249.16C249.452 240.869 249.689 241.106 249.689 241.398V244.573C249.689 244.865 249.452 245.102 249.16 245.102H248.631C248.339 245.102 248.102 244.865 248.102 244.573V241.398ZM246.251 241.928C245.959 241.928 245.722 242.165 245.722 242.457V244.573C245.722 244.866 245.959 245.103 246.251 245.103H246.78C247.072 245.103 247.309 244.866 247.309 244.573V242.457C247.309 242.165 247.072 241.928 246.78 241.928H246.251ZM243.869 245.106C243.577 245.106 243.34 244.869 243.34 244.577V243.254C243.34 242.962 243.577 242.725 243.869 242.725H244.398C244.69 242.725 244.927 242.962 244.927 243.254V244.577C244.927 244.869 244.69 245.106 244.398 245.106H243.869Z" fill="black"/>
<path d="M259.02 240.489C260.192 240.489 261.32 240.94 262.169 241.747C262.233 241.81 262.336 241.809 262.399 241.746L263.01 241.128C263.042 241.096 263.06 241.053 263.06 241.007C263.059 240.962 263.041 240.919 263.009 240.887C260.779 238.75 257.261 238.75 255.03 240.887C254.998 240.919 254.98 240.962 254.979 241.007C254.979 241.053 254.997 241.096 255.029 241.128L255.641 241.746C255.704 241.809 255.806 241.81 255.87 241.747C256.72 240.94 257.847 240.489 259.02 240.489ZM259.02 242.497C259.664 242.497 260.285 242.737 260.763 243.169C260.827 243.23 260.929 243.229 260.992 243.166L261.603 242.549C261.635 242.516 261.653 242.472 261.652 242.427C261.652 242.381 261.633 242.338 261.6 242.306C260.146 240.953 257.895 240.953 256.441 242.306C256.408 242.338 256.389 242.381 256.389 242.427C256.388 242.472 256.406 242.516 256.438 242.549L257.049 243.166C257.112 243.229 257.214 243.23 257.278 243.169C257.755 242.737 258.376 242.498 259.02 242.497ZM260.194 243.97C260.227 243.938 260.245 243.894 260.244 243.848C260.243 243.803 260.223 243.759 260.189 243.729C259.514 243.158 258.526 243.158 257.851 243.729C257.817 243.759 257.797 243.803 257.796 243.848C257.795 243.894 257.813 243.938 257.846 243.97L258.903 245.037C258.934 245.068 258.976 245.086 259.02 245.086C259.064 245.086 259.106 245.068 259.137 245.037L260.194 243.97Z" fill="black"/>
<g clip-path="url(#clip4_236_54212)">
<path d="M107.267 268.003L104.842 265.577C104.793 265.529 104.756 265.47 104.728 265.404C104.728 265.401 104.728 265.401 104.724 265.398C104.7 265.339 104.687 265.277 104.687 265.208C104.687 265.142 104.7 265.08 104.724 265.021C104.724 265.018 104.724 265.015 104.728 265.011C104.756 264.949 104.793 264.89 104.838 264.846C104.838 264.846 104.838 264.846 104.838 264.842L107.264 262.416C107.468 262.213 107.795 262.213 107.996 262.416C108.196 262.62 108.199 262.948 107.996 263.148L106.453 264.69H112.105C112.391 264.69 112.623 264.921 112.623 265.208C112.623 265.494 112.391 265.725 112.105 265.725H106.453L107.996 267.268C108.096 267.368 108.147 267.502 108.147 267.633C108.147 267.765 108.096 267.899 107.996 267.999C107.799 268.203 107.471 268.203 107.267 268.003Z" fill="#1A1D21"/>
</g>
</g>
</g>
<path d="M267.105 218.013H120.732C110.813 218.024 101.304 222.054 94.2902 229.22C87.2766 236.385 83.3315 246.1 83.3203 256.233V644.165C83.3315 654.298 87.2766 664.013 94.2902 671.178C101.304 678.343 110.813 682.374 120.732 682.385H267.105C277.024 682.374 286.533 678.343 293.547 671.178C300.56 664.013 304.505 654.298 304.516 644.165V256.233C304.505 246.1 300.56 236.385 293.547 229.22C286.533 222.054 277.024 218.024 267.105 218.013V218.013ZM293.761 644.6C293.763 651.827 290.957 658.759 285.959 663.874C280.96 668.988 274.179 671.866 267.105 671.875H120.779C113.704 671.866 106.923 668.988 101.925 663.874C96.9266 658.759 94.1204 651.827 94.1229 644.6V256.753C94.1204 249.526 96.9266 242.594 101.925 237.48C106.923 232.365 113.704 229.488 120.779 229.479H267.105C274.179 229.488 280.96 232.365 285.959 237.48C290.957 242.594 293.763 249.526 293.761 256.753V644.6Z" fill="black"/>
</g>
</g>
<defs>
<linearGradient id="paint0_linear_236_54212" x1="217.941" y1="78.3138" x2="297.1" y2="78.3138" gradientUnits="userSpaceOnUse">
<stop stop-color="#666666"/>
<stop offset="0.39" stop-color="#CCCCCC"/>
<stop offset="0.64" stop-color="#E6E6E6"/>
<stop offset="0.67" stop-color="#D7D7D7"/>
<stop offset="0.77" stop-color="#B1B1B1"/>
<stop offset="0.86" stop-color="#969696"/>
<stop offset="0.94" stop-color="#868686"/>
<stop offset="1" stop-color="#808080"/>
</linearGradient>
<linearGradient id="paint1_linear_236_54212" x1="296.845" y1="78.2739" x2="296.845" y2="67.3935" gradientUnits="userSpaceOnUse">
<stop stop-color="#666666"/>
<stop offset="0.39" stop-color="#CCCCCC"/>
<stop offset="0.64" stop-color="#E6E6E6"/>
<stop offset="0.67" stop-color="#D7D7D7"/>
<stop offset="0.77" stop-color="#B1B1B1"/>
<stop offset="0.86" stop-color="#969696"/>
<stop offset="0.94" stop-color="#868686"/>
<stop offset="1" stop-color="#808080"/>
</linearGradient>
<linearGradient id="paint2_linear_236_54212" x1="104.247" y1="136.502" x2="137.939" y2="136.502" gradientUnits="userSpaceOnUse">
<stop stop-color="#808080"/>
<stop offset="0.39" stop-color="#AEB0B1"/>
<stop offset="0.64" stop-color="#C3C4C5"/>
<stop offset="0.71" stop-color="#B0B1B1"/>
<stop offset="0.82" stop-color="#969696"/>
<stop offset="0.92" stop-color="#868686"/>
<stop offset="1" stop-color="#808080"/>
</linearGradient>
<linearGradient id="paint3_linear_236_54212" x1="108.82" y1="131.984" x2="135.434" y2="131.984" gradientUnits="userSpaceOnUse">
<stop stop-color="#EF4749"/>
<stop offset="1" stop-color="#F68D41"/>
</linearGradient>
<linearGradient id="paint4_linear_236_54212" x1="208.736" y1="302.772" x2="262.84" y2="302.772" gradientUnits="userSpaceOnUse">
<stop stop-color="#666666"/>
<stop offset="0.39" stop-color="#CCCCCC"/>
<stop offset="0.64" stop-color="#E6E6E6"/>
<stop offset="0.67" stop-color="#D7D7D7"/>
<stop offset="0.77" stop-color="#B1B1B1"/>
<stop offset="0.86" stop-color="#969696"/>
<stop offset="0.94" stop-color="#868686"/>
<stop offset="1" stop-color="#808080"/>
</linearGradient>
<linearGradient id="paint5_linear_236_54212" x1="262.666" y1="302.745" x2="262.666" y2="295.309" gradientUnits="userSpaceOnUse">
<stop stop-color="#666666"/>
<stop offset="0.39" stop-color="#CCCCCC"/>
<stop offset="0.64" stop-color="#E6E6E6"/>
<stop offset="0.67" stop-color="#D7D7D7"/>
<stop offset="0.77" stop-color="#B1B1B1"/>
<stop offset="0.86" stop-color="#969696"/>
<stop offset="0.94" stop-color="#868686"/>
<stop offset="1" stop-color="#808080"/>
</linearGradient>
<linearGradient id="paint6_linear_236_54212" x1="131.026" y1="342.543" x2="154.054" y2="342.543" gradientUnits="userSpaceOnUse">
<stop stop-color="#808080"/>
<stop offset="0.39" stop-color="#AEB0B1"/>
<stop offset="0.64" stop-color="#C3C4C5"/>
<stop offset="0.71" stop-color="#B0B1B1"/>
<stop offset="0.82" stop-color="#969696"/>
<stop offset="0.92" stop-color="#868686"/>
<stop offset="1" stop-color="#808080"/>
</linearGradient>
<linearGradient id="paint7_linear_236_54212" x1="134.149" y1="339.455" x2="152.34" y2="339.455" gradientUnits="userSpaceOnUse">
<stop stop-color="#EF4749"/>
<stop offset="1" stop-color="#F68D41"/>
</linearGradient>
<clipPath id="clip0_236_54212">
<rect width="387" height="417" fill="white"/>
</clipPath>
<clipPath id="clip1_236_54212">
<rect width="388" height="400" fill="white" transform="translate(-0.5 49)"/>
</clipPath>
<clipPath id="clip2_236_54212">
<rect x="93.3301" y="229.58" width="198.731" height="442.677" rx="26.2617" fill="white"/>
</clipPath>
<clipPath id="clip3_236_54212">
<rect width="198.403" height="46.5586" fill="white" transform="translate(90.791 230.291)"/>
</clipPath>
<clipPath id="clip4_236_54212">
<rect width="198.403" height="10.5815" fill="white" transform="translate(90.791 259.919)"/>
</clipPath>
</defs>
</svg>
